<?xml version="1.0" encoding="utf-8"?>
<!-- Generator: Adobe Illustrator 18.0.0, SVG Export Plug-In . SVG Version: 6.00 Build 0)  -->
<!DOCTYPE svg PUBLIC "-//W3C//DTD SVG 1.1//EN" "http://www.w3.org/Graphics/SVG/1.1/DTD/svg11.dtd">
<svg version="1.1" id="Layer_1" xmlns="http://www.w3.org/2000/svg" xmlns:xlink="http://www.w3.org/1999/xlink" x="0px" y="0px"
	 viewBox="0 0 287.8 84.9" enable-background="new 0 0 287.8 84.9" xml:space="preserve">
<g>
	<path fill="#2A2A2A" d="M59.4,25.9h20.2v6.9H67.5v6.9h10.1v6.9H67.5v12.2h-8.1V25.9z"/>
	<path fill="#2A2A2A" d="M84.8,25.9h8.1v33h-8.1V25.9z"/>
	<path fill="#2A2A2A" d="M100.6,25.9h8.1V52h13.5v6.9h-21.6V25.9z"/>
	<path fill="#2A2A2A" d="M144.6,52h-10.3l-2,6.9h-8.3l11.2-33h8.5l11.2,33h-8.3L144.6,52z M139.4,33.4c0,0-0.7,3.6-1.3,5.7l-1.9,6.4
		h6.5l-1.8-6.4C140.2,37,139.5,33.4,139.4,33.4L139.4,33.4z"/>
	<path fill="#2A2A2A" d="M160.3,25.9h8.8l4.8,14c0.7,2.1,1.7,5.5,1.7,5.5h0.1c0,0,0.9-3.3,1.7-5.5l4.8-14h8.8l2.7,33h-8.1l-1-14.9
		c-0.2-2.5,0-5.5,0-5.5h-0.1c0,0-1.1,3.5-1.8,5.5l-3.5,9.6h-6.9l-3.5-9.6c-0.7-2.1-1.8-5.5-1.8-5.5h-0.1c0,0,0.2,3.1,0,5.5l-1,14.9
		h-8.1L160.3,25.9z"/>
	<path fill="#2A2A2A" d="M200.3,25.9H221v6.9h-12.6v6h10.1v6.9h-10.1V52h13.3v6.9h-21.4V25.9z"/>
	<path fill="#2A2A2A" d="M227.5,25.9h8.2l9.2,15.4c1.3,2.2,2.8,5.6,2.8,5.6h0.1c0,0-0.4-3.6-0.4-5.6V25.9h8.1v33h-8.1l-9.2-15.4
		c-1.3-2.2-2.8-5.6-2.8-5.6h-0.1c0,0,0.4,3.6,0.4,5.6v15.4h-8.1V25.9z"/>
	<path fill="#2A2A2A" d="M269.5,32.8h-10v-6.9h28.1v6.9h-10v26.1h-8.1V32.8z"/>
</g>
<polygon fill="#2A2A2A" points="27.3,0 0,50 11.9,46 4.2,84.9 35.1,29.1 21.5,33.7 "/>
</svg>
